<?xml version="1.0" encoding="utf-8"?>
<!-- Generator: Adobe Illustrator 26.4.1, SVG Export Plug-In . SVG Version: 6.00 Build 0)  -->
<svg version="1.1" id="Layer_1" xmlns="http://www.w3.org/2000/svg" xmlns:xlink="http://www.w3.org/1999/xlink" x="0px" y="0px"
	 viewBox="0 0 228 228" style="enable-background:new 0 0 228 228;" xml:space="preserve">
<style type="text/css">
	.st0{fill:url(#SVGID_1_);}
	.st1{opacity:0.9;fill:#00FF00;}
	.st2{font-family:'SegoeUI-Semibold';}
	.st3{font-size:140px;}
	.st4{letter-spacing:-8;}
	.st5{opacity:0.28;}
	.st6{fill:#006837;}
</style>
<g>
	
		<linearGradient id="SVGID_1_" gradientUnits="userSpaceOnUse" x1="14" y1="70" x2="242" y2="70" gradientTransform="matrix(0 1 -1 0 184 -14)">
		<stop  offset="0" style="stop-color:#CCCCCC"/>
		<stop  offset="0.2081" style="stop-color:#C7C7C7"/>
		<stop  offset="0.4525" style="stop-color:#B9B9B9"/>
		<stop  offset="0.7151" style="stop-color:#A1A1A1"/>
		<stop  offset="0.9889" style="stop-color:#808080"/>
		<stop  offset="1" style="stop-color:#7F7F7F"/>
	</linearGradient>
	<path class="st0" d="M0,198c0,16.57,13.43,30,30,30h168c16.57,0,30-13.43,30-30V30c0-16.57-13.43-30-30-30H30C13.43,0,0,13.43,0,30
		V198z"/>
</g>
<g>
	<path d="M34,217.5c-13.51,0-24.5-10.99-24.5-24.5V33C9.5,19.49,20.49,8.5,34,8.5h160c13.51,0,24.5,10.99,24.5,24.5v160
		c0,13.51-10.99,24.5-24.5,24.5H34z"/>
	<path d="M194,11c12.13,0,22,9.87,22,22v160c0,12.13-9.87,22-22,22H34c-12.13,0-22-9.87-22-22V33c0-12.13,9.87-22,22-22H194 M194,6
		H34C19.09,6,7,18.09,7,33v160c0,14.91,12.09,27,27,27h160c14.91,0,27-12.09,27-27V33C221,18.09,208.91,6,194,6L194,6z"/>
</g>
<text transform="matrix(1 0 0 1 24.4956 156.7065)" class="st1 st2 st3 st4">PH</text>
<g class="st5">
	<path class="st6" d="M13,187c0,14.91,12.09,27,27,27h147c14.91,0,27-12.09,27-27V40c0-14.91-12.09-27-27-27H40
		c-14.91,0-27,12.09-27,27V187z"/>
</g>
</svg>
